<svg width="20" height="20" viewBox="0 0 20 20" fill="none" xmlns="http://www.w3.org/2000/svg">
<g clip-path="url(#clip0)">
<path d="M1.79592 12.9258L5.13386 14.2448V0.267433C5.13386 0.119663 5.25394 0.000314627 5.40145 0H8.07693C8.22433 0.000314627 8.34415 0.119663 8.34415 0.267118V14.2449L11.6822 12.9258C11.7941 12.8826 11.9218 12.9181 11.9939 13.0137C12.0668 13.1101 12.0661 13.2423 11.9927 13.3376L6.95156 19.8953C6.90064 19.9615 6.82225 19.9999 6.73903 20.0001C6.65655 20.0001 6.57784 19.9615 6.52713 19.8953L1.4857 13.3376C1.44873 13.2893 1.43022 13.2317 1.43048 13.1747C1.43048 13.1189 1.4481 13.0616 1.48402 13.0131C1.55644 12.9181 1.68402 12.8819 1.79592 12.9258ZM18.5695 12.8159H17.4208L16.7724 11.2566H14.8203L14.1896 12.8159H13.0671L15.2407 7.59515H16.3871L18.5695 12.8159ZM16.4997 10.4925L15.9801 9.24563C15.906 9.0687 15.8452 8.90059 15.7913 8.73819C15.7313 8.918 15.6725 9.0805 15.6128 9.23509L15.0911 10.4922H16.4997V10.4925ZM17.8555 14.0012H13.4655V14.8032H16.4171L13.1772 18.6712V19.2227H17.9003V18.421H14.6332L17.8549 14.5683V14.0013H17.8555V14.0012Z" fill="#00203F"/>
</g>
<defs>
<clipPath id="clip0">
<rect width="20" height="20" fill="white"/>
</clipPath>
</defs>
</svg>
