<svg width="24" height="24" viewBox="0 0 24 24" fill="none" xmlns="http://www.w3.org/2000/svg">
<path d="M3.75 12.75L18.7121 12.75L12.9829 18.207C12.6829 18.4928 12.6713 18.9675 12.957 19.2675C13.2424 19.5671 13.7171 19.5791 14.0175 19.2934L20.5605 13.0609C20.8436 12.7774 21 12.4009 21 12C21 11.5995 20.8436 11.2226 20.5474 10.9268L14.0171 4.707C13.872 4.56862 13.686 4.5 13.5 4.5C13.302 4.5 13.104 4.578 12.9566 4.73287C12.6709 5.03287 12.6825 5.50725 12.9825 5.793L18.7357 11.25L3.75 11.25C3.336 11.25 3 11.586 3 12C3 12.414 3.336 12.75 3.75 12.75Z" fill="#43C59E"/>
</svg>
