<svg width="20" height="20" viewBox="0 0 20 20" fill="none" xmlns="http://www.w3.org/2000/svg">
<g clip-path="url(#clip0)">
<path d="M19.7556 18.1643L14.0682 12.6034C15.1699 11.2728 15.8332 9.5821 15.8332 7.74068C15.8332 3.47279 12.2815 0.0001297 7.91656 0.0001297C3.55161 0.0001297 0 3.47275 0 7.74064C0 12.0085 3.55165 15.4812 7.9166 15.4812C9.7999 15.4812 11.5291 14.8326 12.8899 13.7555L18.5773 19.3164C18.7398 19.4753 18.9531 19.5552 19.1665 19.5552C19.3798 19.5552 19.5932 19.4753 19.7557 19.3164C20.0815 18.9979 20.0815 18.4829 19.7556 18.1643ZM7.9166 13.8516C4.46996 13.8516 1.66666 11.1106 1.66666 7.74064C1.66666 4.37064 4.46996 1.62969 7.9166 1.62969C11.3632 1.62969 14.1665 4.37064 14.1665 7.74064C14.1665 11.1106 11.3632 13.8516 7.9166 13.8516Z" fill="#00203F"/>
</g>
<defs>
<clipPath id="clip0">
<rect width="20" height="19.5552" fill="white"/>
</clipPath>
</defs>
</svg>
