<svg width="20" height="20" viewBox="0 0 20 20" fill="none" xmlns="http://www.w3.org/2000/svg">
<path d="M6.20084 5.74694L7.38381 4.56398L3.6919 0.872078L0 4.56398L1.18296 5.74694L2.85559 4.07432V15.9257L1.18296 14.2531L0 15.436L3.6919 19.1279L7.38381 15.436L6.20084 14.2531L4.52822 15.9257V4.07432L6.20084 5.74694Z" fill="#00203F"/>
<path d="M20 0.800568H9.12793V2.47319H20V0.800568Z" fill="#00203F"/>
<path d="M20 9.1637H9.12793V10.8363H20V9.1637Z" fill="#00203F"/>
<path d="M16.6547 4.98213H9.12793V6.65476H16.6547V4.98213Z" fill="#00203F"/>
<path d="M16.6547 13.3453H9.12793V15.0179H16.6547V13.3453Z" fill="#00203F"/>
<path d="M20 17.5268H9.12793V19.1994H20V17.5268Z" fill="#00203F"/>
</svg>
