<svg width="20" height="20" viewBox="0 0 20 20" fill="none" xmlns="http://www.w3.org/2000/svg">
<path d="M11.8583 4.39819H2.93835V5.84403H11.8583V4.39819Z" fill="#00203F"/>
<path d="M16.2273 15.2691C16.9188 14.0476 16.7183 12.4912 15.7125 11.4865C15.1175 10.8915 14.3263 10.563 13.4819 10.563C12.6376 10.563 11.8454 10.8915 11.2503 11.4865C10.6553 12.0815 10.3269 12.8727 10.3269 13.7181C10.3269 14.5602 10.6553 15.3525 11.2503 15.9497C11.8454 16.5426 12.6366 16.871 13.4798 16.871C14.0293 16.871 14.5614 16.7312 15.034 16.4645L18.5695 20L19.7628 18.8056L16.2273 15.2691ZM14.8096 15.0447C14.103 15.7514 12.8631 15.7514 12.1564 15.0447C11.4248 14.312 11.4248 13.1231 12.1564 12.3904C12.5097 12.0371 12.9823 11.842 13.4841 11.842C13.9859 11.842 14.4563 12.0371 14.8107 12.3904C15.1651 12.7437 15.3602 13.2163 15.3602 13.7181C15.3602 14.2199 15.1641 14.6903 14.8096 15.0447Z" fill="#00203F"/>
<path d="M14.4497 17.6665H2.01275C1.81549 17.6665 1.65617 17.5061 1.65617 17.311V1.77532C1.65617 1.57806 1.81549 1.41874 2.01275 1.41874H14.4497C14.647 1.41874 14.8052 1.57806 14.8052 1.77532V9.70032C15.3201 9.81304 15.8002 10.0331 16.2251 10.3474V1.77532C16.2251 0.796618 15.4295 0 14.4497 0H2.01275C1.03405 0 0.237427 0.796618 0.237427 1.77532V17.311C0.237427 18.2886 1.03405 19.0852 2.01275 19.0852H14.4497C15.1922 19.0852 15.5433 18.9097 15.8078 18.2615L15.164 17.6177C14.9266 17.7174 14.5516 17.6665 14.4497 17.6665Z" fill="#00203F"/>
<path d="M11.8583 8.47345H2.93835V9.91929H11.8583V8.47345Z" fill="#00203F"/>
</svg>
